Coordinates
version=1
nRows=10
nColumns=28
inDegrees=yes

Units are S.I. units (second, meters, Newtons, ...)
If the header above contains a line with 'inDegrees', this indicates whether rotational values are in degrees (yes) or radians (no).

endheader
time	pelvis_tilt	pelvis_list	pelvis_rotation	pelvis_tx	pelvis_ty	pelvis_tz	hip_flexion_r	hip_adduction_r	hip_rotation_r	knee_angle_r	knee_rotation_r	knee_adduction_r	ankle_angle_r	subtalar_angle_r	mtp_angle_r	hip_flexion_l	hip_adduction_l	hip_rotation_l	knee_angle_l	knee_rotation_l	knee_adduction_l	ankle_angle_l	subtalar_angle_l	mtp_angle_l	lumbar_extension	lumbar_bending	lumbar_rotation
      0.00000000	     -6.42968186	      8.59455029	    -94.95020623	     -0.22316196	      0.95732119	     -0.92123048	      4.46465552	      8.74917101	     20.80279147	    -10.89538960	    -20.34054684	      5.85818062	     12.22763010	     -7.77099212	     -0.43627165	     42.11872731	    -12.85059429	      5.86115048	    -36.20605151	      9.04528168	     -7.18217345	     10.17219139	     -0.67910843	      0.89958533	      0.00000000	      0.00000000	      0.00000000
      0.01000000	     -6.41273878	      9.11858504	    -95.12118162	     -0.22345247	      0.95565999	     -0.90957048	      4.18362288	      8.62128826	     20.77761180	    -10.82236271	    -20.23266401	      6.00549074	     12.70513678	     -7.39375922	     -0.44871441	     41.81147770	    -12.68716869	      5.94242329	    -31.72812964	     10.89471420	     -6.70385029	     10.27246373	      0.65441951	      1.13959197	      0.00000000	      0.00000000	      0.00000000
      0.02000000	     -6.51122605	      9.47734737	    -95.38290414	     -0.22346971	      0.95411023	     -0.89780420	      3.78418310	      8.55694593	     20.48953116	    -10.88922647	    -19.91959671	      6.14795829	     13.28519316	     -6.99792424	     -0.27076900	     41.26308628	    -12.41204882	      4.99203137	    -27.11080382	     11.79133817	     -5.14681765	     10.85052830	      2.53963956	      1.62721434	      0.00000000	      0.00000000	      0.00000000
      0.03000000	     -6.24056956	      9.90148283	    -95.66542777	     -0.22328097	      0.95270442	     -0.88597041	      3.58283130	      8.05918277	     20.42580311	    -11.18495746	    -20.17206974	      6.47338976	     13.94841966	     -5.97370640	     -0.02721490	     40.50616060	    -11.81839170	      4.43094916	    -22.04830521	     12.89509780	     -3.92502098	     11.01844588	      3.69921518	      2.30903824	      0.00000000	      0.00000000	      0.00000000
      0.04000000	     -5.74525451	     10.57984997	    -95.61787934	     -0.22252018	      0.95114248	     -0.87312232	      3.48705978	      7.12820733	     19.23117649	    -11.12578684	    -19.53398880	      6.91933104	     14.34642960	     -5.69536437	      0.06620088	     39.77810244	    -10.76759295	      4.36934534	    -16.57728010	     14.07107374	     -2.67980406	     10.51973869	      4.50869692	      2.47917506	      0.00000000	      0.00000000	      0.00000000
      0.05000000	     -5.18320761	     10.43539415	    -95.62798834	     -0.22124803	      0.95063733	     -0.86038205	      2.63817229	      6.07061485	     18.12181736	    -11.31562514	    -19.14089007	      7.23214969	     14.97141754	     -4.32304586	      0.33181898	     37.93321251	     -9.66154321	      4.57660852	    -10.76871610	     15.28255583	     -1.59978947	      9.83374727	      4.66162250	      2.76980271	      0.00000000	      0.00000000	      0.00000000
      0.06000000	     -4.78390761	     10.57779475	    -95.87457454	     -0.22007998	      0.94961753	     -0.84771383	      2.16975943	      5.13594748	     17.41181350	    -11.69553525	    -18.68357901	      7.79068558	     15.40371121	     -3.38821519	      0.57734199	     36.25174338	     -9.02623078	      5.55592678	     -4.99686532	     17.44966587	     -0.86671242	      8.90748109	      4.68345279	      2.86618040	      0.00000000	      0.00000000	      0.00000000
      0.07000000	     -4.61408041	     10.67448527	    -96.11933700	     -0.21933651	      0.94827529	     -0.83481699	      1.65495587	      4.58828762	     16.62518875	    -12.07504973	    -17.97102097	      8.04717424	     15.67302097	     -2.75491076	      0.79487902	     34.69212009	     -8.90801865	      6.99399916	     -0.00624909	     20.20175674	     -0.55446989	      8.39725360	      5.11043374	      2.95884463	      0.00000000	      0.00000000	      0.00000000
      0.08000000	     -4.36365903	     10.74108104	    -96.46851526	     -0.21884468	      0.94708821	     -0.82198086	      1.15478896	      3.95188479	     16.30592014	    -12.49281013	    -17.44774156	      8.42138300	     15.93136291	     -2.34650114	      0.92000734	     33.80405427	     -8.56150460	      6.85240786	      3.07372817	     21.67712874	      0.12419795	      8.71887105	      6.51459124	      2.80818153	      0.00000000	      0.00000000	      0.00000000
      0.09000000	     -4.36930106	     10.75079278	    -96.65603444	     -0.21871311	      0.94568075	     -0.80955671	      0.65045027	      3.74409437	     16.26830486	    -13.02633409	    -17.13783884	      8.58850924	     16.18104559	     -1.98729820	      0.94201298	     33.89049323	     -8.27317617	      5.88291340	      3.81159633	     22.74901415	      0.80091335	      9.93846001	      9.42109036	      2.52995813	      0.00000000	      0.00000000	      0.00000000
